<?xml version="1.0" standalone="no"?>
<!DOCTYPE svg PUBLIC "-//W3C//DTD SVG 20010904//EN"
 "http://www.w3.org/TR/2001/REC-SVG-20010904/DTD/svg10.dtd">
<svg version="1.0" xmlns="http://www.w3.org/2000/svg"
 width="500.000000pt" height="500.000000pt" viewBox="0 0 500.000000 500.000000"
 preserveAspectRatio="xMidYMid meet">
<metadata>
Created by potrace 1.14, written by Peter Selinger 2001-2017
</metadata>
<g transform="translate(0.000000,500.000000) scale(0.100000,-0.100000)"
fill="#000000" stroke="none">
<path d="M0 2505 l0 -1835 2500 0 2500 0 0 1835 0 1835 -2500 0 -2500 0 0
-1835z m3755 745 c118 -37 285 -137 285 -171 0 -11 -158 -209 -166 -209 -3 0
-19 9 -34 20 -72 51 -162 84 -246 88 -123 7 -194 -25 -213 -93 -14 -54 3 -101
48 -131 21 -13 124 -60 229 -103 210 -86 270 -120 332 -187 63 -69 92 -140 98
-244 6 -113 -19 -202 -82 -287 -93 -127 -235 -196 -431 -209 -202 -14 -413 56
-584 194 l-24 19 98 117 c53 64 100 114 103 112 4 -2 37 -24 74 -49 93 -63
167 -89 266 -95 145 -8 219 31 229 121 11 92 -17 113 -309 236 -182 77 -270
137 -327 222 -57 85 -75 152 -68 254 5 93 28 153 87 231 65 87 196 161 323
184 80 14 232 4 312 -20z m-2190 -24 c39 -10 111 -37 161 -62 187 -89 299
-252 335 -488 17 -109 6 -354 -21 -446 -71 -247 -246 -408 -500 -460 -81 -17
-137 -20 -367 -20 l-273 0 0 751 0 751 298 -5 c235 -3 311 -8 367 -21z"/>
<path d="M1240 2496 l0 -477 78 6 c162 13 264 62 329 159 51 75 65 134 70 291
7 209 -22 312 -113 401 -63 60 -134 85 -261 92 l-103 5 0 -477z"/>
</g>
</svg>
